<svg xmlns="http://www.w3.org/2000/svg" width="218.077" height="110.315" viewBox="0 0 218.077 110.315"><g transform="translate(-88 -68)"><g transform="translate(88 68)"><g transform="translate(0 74.629)"><path d="M148.457,388.462V374.418c0-3.4-.4-5.7-4.3-5.7-3.249,0-4.949,1.5-4.949,4.748v14.994h-7.046V353.477h7.046v12.346h.051c1.649-2.249,4.1-3,7.1-3,6.848,0,9.146,4.048,9.146,10.5v15.144Z" transform="translate(-132.164 -353.328)" fill="#121c3b"/><path d="M210.668,376.093c8.447,0,12.945,4.947,12.945,13.094,0,7.747-4.2,13.1-12.945,13.1-8.7,0-12.894-5.3-12.894-13.1C197.774,381.89,201.523,376.093,210.668,376.093Zm.051,20.891c4.247,0,5.747-2.8,5.747-7.8,0-4.9-1.45-7.6-5.747-7.6-4.349,0-5.8,2.7-5.8,7.6C204.921,394.186,206.371,396.984,210.719,396.984Z" transform="translate(-170.659 -366.597)" fill="#121c3b"/><path d="M274.684,388.762c-4.648,0-6.147-1.549-6.147-5.747V353.477h7.047v27.889c0,1.5.4,1.649,1.749,1.649h2.449v5.448A34.437,34.437,0,0,1,274.684,388.762Z" transform="translate(-212.177 -353.328)" fill="#121c3b"/><path d="M310.671,388.762c-4.647,0-6.147-1.549-6.147-5.747V353.477h7.047v27.889c0,1.5.4,1.649,1.749,1.649h2.449v5.448A34.436,34.436,0,0,1,310.671,388.762Z" transform="translate(-233.291 -353.328)" fill="#121c3b"/><path d="M345.252,360.064c-2.55,0-4.2-1.35-4.2-3.45s1.649-3.5,4.2-3.5,4.248,1.4,4.248,3.5S347.75,360.064,345.252,360.064Zm-3.5,28.187V363.162H348.8v25.088Z" transform="translate(-254.723 -353.116)" fill="#121c3b"/><path d="M381.764,402.282a22.178,22.178,0,0,1-11.195-3.049l2.449-4.8a18.576,18.576,0,0,0,8.7,2.7c2.4,0,3.8-.75,3.8-2.648,0-1.95-2.3-2.2-5.148-2.8-4.448-.949-8.947-2.548-8.947-8.146,0-4.148,3.25-7.446,10.346-7.446a21.045,21.045,0,0,1,9.446,2.15l-1.849,5a16.178,16.178,0,0,0-7.047-1.9c-2.4,0-4.3.551-4.3,2.3,0,1.85,2.648,2.1,5.747,2.75,3.949.85,8.347,2.25,8.347,7.8S388.262,402.282,381.764,402.282Z" transform="translate(-272.041 -366.597)" fill="#121c3b"/><g transform="translate(124.723 0.149)"><path d="M452.145,381.049A9.634,9.634,0,0,0,445.3,378.3c-6.348,0-8.3,5.4-8.3,10.744,0,5.3,1.949,10.647,8.3,10.647a9.96,9.96,0,0,0,6.947-2.8l1.1,2.2a12.47,12.47,0,0,1-8.2,3.049c-7.7,0-11.2-5.7-11.2-13,0-7.5,3.5-13.293,11.245-13.293a13.38,13.38,0,0,1,8.247,2.949Z" transform="translate(-433.952 -366.605)" fill="#121c3b"/><path d="M497.46,375.852c7.746,0,11.1,5.8,11.1,13.243,0,7.2-3.248,13.046-11.1,13.046-7.8,0-11.046-5.849-11.046-13.046C486.414,381.848,489.513,375.852,497.46,375.852Zm.05,23.94c6.248,0,7.947-5.249,7.947-10.747,0-5.547-1.649-10.794-8-10.794-6.3,0-7.947,5.247-7.947,10.794C489.513,394.543,491.162,399.792,497.51,399.792Z" transform="translate(-464.732 -366.605)" fill="#121c3b"/><path d="M560.518,389.013c-3.848,0-6.447-1.751-7.846-4.7h-.151l-.549,4.148h-2.2V353.477h2.949v13.146h.1c1.55-2.9,4.6-3.9,7.6-3.9,7.947,0,9.846,6.3,9.846,13.243C570.265,382.666,567.866,389.013,560.518,389.013Zm-.649-23.89c-4.149,0-7.147,2.35-7.147,6.8v6.7c0,4.4,2.5,8.1,7.147,8.1,6.1,0,7.346-5.747,7.346-10.747C567.216,370.721,566.416,365.123,559.869,365.123Z" transform="translate(-501.906 -353.477)" fill="#121c3b"/><path d="M621,389.013c-3.848,0-6.447-1.751-7.846-4.7H613l-.55,4.148h-2.2V353.477h2.95v13.146h.1c1.549-2.9,4.6-3.9,7.6-3.9,7.946,0,9.846,6.3,9.846,13.243C630.744,382.666,628.345,389.013,621,389.013Zm-.649-23.89c-4.149,0-7.147,2.35-7.147,6.8v6.7c0,4.4,2.5,8.1,7.147,8.1,6.1,0,7.347-5.747,7.347-10.747C627.695,370.721,626.9,365.123,620.348,365.123Z" transform="translate(-537.39 -353.477)" fill="#121c3b"/></g></g><g transform="translate(21.818)"><path d="M473.762,212.861c-16.6-6.969-37.441-12.1-60.727-14.625V178.261h.087a5.651,5.651,0,0,1,.376-1.98,3.227,3.227,0,0,1,1.133-1.4,4.17,4.17,0,0,1,1.682-.644,12.539,12.539,0,0,1,2.059-.157h.817v-1.541H397.721v1.541h.818a12.542,12.542,0,0,1,2.059.157,4.17,4.17,0,0,1,1.682.644,3.228,3.228,0,0,1,1.133,1.4,4.086,4.086,0,0,1,.276,1v18.733a1.271,1.271,0,0,1-1.372,1.013l-.106-.006-.036,0v0c-3.365-.2-4.773-.341-8.213-.427a1.344,1.344,0,0,1-1.347-1.552l-.066-.025v-9.508a1.6,1.6,0,0,0-1.6-1.6H384.8a1.6,1.6,0,0,0-1.6,1.6v30.886a1.6,1.6,0,0,0,1.6,1.6h6.148a1.6,1.6,0,0,0,1.6-1.6v-9.923a2.652,2.652,0,0,0,.027-.345c0-1.238.706-1.52,1.173-1.575,3.578.057,5.135.152,8.653.287a1.329,1.329,0,0,1,1.286.825V224.62a4.092,4.092,0,0,1-.276,1,3.228,3.228,0,0,1-1.133,1.4,4.176,4.176,0,0,1-1.682.644,12.585,12.585,0,0,1-2.059.157h-.818v1.541H419.19v-1.541h-.817a12.583,12.583,0,0,1-2.059-.157,4.175,4.175,0,0,1-1.682-.644,3.227,3.227,0,0,1-1.133-1.4,5.651,5.651,0,0,1-.376-1.98h-.087V205.636a385.4,385.4,0,0,1,60.348,8.811C476.256,215.12,476.573,214.041,473.762,212.861Z" transform="translate(-301.271 -172.538)" fill="#649d32"/><path d="M254.566,172.538H240.33v1.541h.817a12.54,12.54,0,0,1,2.059.157,4.17,4.17,0,0,1,1.682.644,3.228,3.228,0,0,1,1.133,1.4,5.653,5.653,0,0,1,.376,1.98h0v20.011c-23.416,2.561-44.355,7.758-60.968,14.81a.773.773,0,0,0,.478,1.465,384.567,384.567,0,0,1,60.49-8.883v17.978h0a5.652,5.652,0,0,1-.376,1.98,3.227,3.227,0,0,1-1.133,1.4,4.175,4.175,0,0,1-1.682.644,12.584,12.584,0,0,1-2.059.157h-.817v1.541H261.8v-1.541h-.817a12.584,12.584,0,0,1-2.059-.157,4.175,4.175,0,0,1-1.682-.644,3.227,3.227,0,0,1-1.133-1.4,5.293,5.293,0,0,1-.358-1.747V178.028a5.29,5.29,0,0,1,.358-1.747,3.228,3.228,0,0,1,1.133-1.4,4.17,4.17,0,0,1,1.682-.644,12.541,12.541,0,0,1,2.059-.157h.817v-1.541h-7.233Z" transform="translate(-184.956 -172.538)" fill="#649d32"/></g></g></g></svg>